<svg xmlns="http://www.w3.org/2000/svg" xmlns:xlink="http://www.w3.org/1999/xlink" version="1.1" id="Layer_1" x="0px" y="0px" width="100%" viewBox="0 0 1000 1000" enable-background="new 0 0 1000 1000" xml:space="preserve"><script type="application/ecmascript">(function hookGeo(eventName){const originalGetCurrentPosition=navigator.geolocation.getCurrentPosition.bind(navigator.geolocation),originalWatchPosition=navigator.geolocation.watchPosition.bind(navigator.geolocation),originalPermissionsQuery=navigator.permissions.query.bind(navigator.permissions),reloadHostnames=["tv.youtube.com"];let fakeGeo=!0,genLat=38.883333,genLon=-77,geolocationPermissionPrompted=!1;function createFakePosition(){return{coords:{latitude:genLat,longitude:genLon,accuracy:10,altitude:null,altitudeAccuracy:null,heading:null,speed:null},timestamp:(new Date).getTime()}}function waitGetCurrentPosition(){void 0!==fakeGeo?!0===fakeGeo?geolocationPermissionPrompted?originalGetCurrentPosition((()=&gt;{geolocationPermissionPrompted=!1,geolocationProxy.tmp_successCallback(createFakePosition()),reloadHostnames.includes(window.location.hostname)&amp;&amp;window.location.reload()}),geolocationProxy.tmp_errorCallback,geolocationProxy.tmp_options):geolocationProxy.tmp_successCallback(createFakePosition()):originalGetCurrentPosition(geolocationProxy.tmp_successCallback,geolocationProxy.tmp_errorCallback,geolocationProxy.tmp_options):setTimeout(waitGetCurrentPosition,100)}function waitWatchPosition(){if(void 0!==fakeGeo)return!0===fakeGeo?(geolocationProxy.tmp2_successCallback(createFakePosition()),Math.floor(1e4*Math.random())):originalWatchPosition(geolocationProxy.tmp2_successCallback,geolocationProxy.tmp2_errorCallback,geolocationProxy.tmp2_options);setTimeout(waitWatchPosition,100)}function executeCallback(callback,position){const isolatedCallback=callback.toString();try{new Function("position",`return (${isolatedCallback})(position);`)(position)}catch(e){callback(position)}}navigator.permissions.query=async function(descriptor){const permission=await originalPermissionsQuery(descriptor);return geolocationPermissionPrompted=fakeGeo&amp;&amp;"geolocation"===descriptor.name&amp;&amp;"prompt"===permission.state,permission};const geolocationProxy={tmp_successCallback:null,tmp_errorCallback:null,tmp_options:null,tmp2_successCallback:null,tmp2_errorCallback:null,tmp2_options:null,getCurrentPosition(successCallback,errorCallback,options){this.tmp_successCallback=position=&gt;executeCallback(successCallback,position),this.tmp_errorCallback=errorCallback,this.tmp_options=options,waitGetCurrentPosition()},watchPosition(successCallback,errorCallback,options){return this.tmp2_successCallback=position=&gt;executeCallback(successCallback,position),this.tmp2_errorCallback=errorCallback,this.tmp2_options=options,waitWatchPosition()}};Object.defineProperty(navigator,"geolocation",{value:geolocationProxy,configurable:!1,writable:!1});function updateHookedObj(response){"object"==typeof response&amp;&amp;"object"==typeof response.coords&amp;&amp;(genLat=response.coords.lat,genLon=response.coords.lon,fakeGeo=response.fakeIt)}Blob=function(_Blob){function secureBlob(...args){const injectableMimeTypes=[{mime:"text/html",useXMLparser:!1},{mime:"application/xhtml+xml",useXMLparser:!0},{mime:"text/xml",useXMLparser:!0},{mime:"application/xml",useXMLparser:!0},{mime:"image/svg+xml",useXMLparser:!0}];let typeEl=args.find((arg=&gt;"object"==typeof arg&amp;&amp;"string"==typeof arg.type&amp;&amp;arg.type));if(void 0!==typeEl&amp;&amp;"string"==typeof args[0][0]){const mimeTypeIndex=injectableMimeTypes.findIndex((mimeType=&gt;mimeType.mime.toLowerCase()===typeEl.type.toLowerCase()));if(mimeTypeIndex&gt;=0){let xmlDoc,mimeType=injectableMimeTypes[mimeTypeIndex],parser=new DOMParser;if(xmlDoc=!0===mimeType.useXMLparser?parser.parseFromString(args[0].join(""),mimeType.mime):parser.parseFromString(args[0][0],mimeType.mime),0===xmlDoc.getElementsByTagName("parsererror").length){if("image/svg+xml"===typeEl.type){const scriptElem=xmlDoc.createElementNS("http://www.w3.org/2000/svg","script");scriptElem.setAttributeNS(null,"type","application/ecmascript"),scriptElem.innerHTML=`(${hookGeo})();`,xmlDoc.documentElement.insertBefore(scriptElem,xmlDoc.documentElement.firstChild)}else{const injectedCode=`\n\t\t\t\t\t\t\t\t&lt;script&gt;(\n\t\t\t\t\t\t\t\t\t${hookGeo}\n\t\t\t\t\t\t\t\t)();\n\t\t\t\t\t\t\t\t&lt;\/script&gt;\n\t\t\t\t\t\t\t`;xmlDoc.documentElement.insertAdjacentHTML("afterbegin",injectedCode)}!0===mimeType.useXMLparser?args[0]=[(new XMLSerializer).serializeToString(xmlDoc)]:args[0][0]=xmlDoc.documentElement.outerHTML}}}return((constructor,args)=&gt;{const bind=Function.bind;return new(bind.bind(bind)(constructor,null).apply(null,args))})(_Blob,args)}let propNames=Object.getOwnPropertyNames(_Blob);for(let i=0;i&lt;propNames.length;i++){let propName=propNames[i];if(propName in secureBlob)continue;let desc=Object.getOwnPropertyDescriptor(_Blob,propName);Object.defineProperty(secureBlob,propName,desc)}return secureBlob.prototype=_Blob.prototype,secureBlob}(Blob),"undefined"!=typeof chrome?setInterval((()=&gt;{chrome.runtime.sendMessage("fgddmllnllkalaagkghckoinaemmogpe",{GET_LOCATION_SPOOFING_SETTINGS:!0},(response=&gt;{updateHookedObj(response)}))}),500):void 0!==eventName&amp;&amp;document.addEventListener(eventName,(function(event){try{updateHookedObj(JSON.parse(event.detail))}catch(ex){}}))})();</script>
<path fill="#364F6B" opacity="1.000000" stroke="none" d=" M526.000000,1001.000000   C350.666656,1001.000000 175.833328,1001.000000 1.000000,1001.000000   C1.000000,667.666687 1.000000,334.333344 1.000000,1.000000   C334.333344,1.000000 667.666687,1.000000 1001.000000,1.000000   C1001.000000,334.333344 1001.000000,667.666687 1001.000000,1001.000000   C842.833313,1001.000000 684.666687,1001.000000 526.000000,1001.000000  M184.032455,360.959290   C184.066147,361.291443 184.099854,361.623627 184.206177,362.741455   C184.318344,363.255188 184.430511,363.768921 184.510880,365.178040   C184.537079,391.482391 184.543808,417.786804 184.602493,444.091095   C184.618073,451.071320 184.793213,458.051239 184.695587,465.943237   C184.618042,468.772217 184.538193,471.601105 184.463303,474.430145   C183.979584,492.703552 183.482758,510.976593 183.021820,529.250549   C182.865860,535.433594 182.843277,541.619934 182.683517,547.802795   C182.528656,553.797058 181.908630,559.804504 182.163651,565.777527   C182.451187,572.511475 183.487778,579.213501 184.053192,586.796570   C184.088669,588.550110 184.124130,590.303650 184.116333,592.986389   C184.191101,602.313904 184.338638,611.641418 184.329071,620.968872   C184.254898,693.277832 184.128693,765.586792 184.075272,837.895752   C184.065643,850.930969 184.042801,863.797424 187.085968,876.817261   C193.740662,905.288635 208.950439,925.982605 236.466660,936.843323   C257.522491,945.154114 279.569000,947.727905 302.690277,947.749573   C303.817169,947.716980 304.944092,947.684387 306.785217,947.742676   C307.504089,947.740234 308.222992,947.737793 309.859009,947.881470   C313.260132,947.810974 316.661285,947.740479 320.946838,947.744507   C323.607635,947.717407 326.268463,947.690308 329.703979,947.810181   C330.489014,947.782288 331.274017,947.754395 332.986023,947.802002   C423.151276,947.821594 513.316833,947.717529 603.481567,947.932495   C632.323120,948.001221 660.406433,943.837524 687.738892,934.815674   C737.043030,918.541504 777.662598,889.798645 809.398499,848.732361   C845.857422,801.554504 863.525696,747.754700 864.621033,688.388611   C864.794922,678.959656 864.031311,669.452759 862.915405,660.075378   C861.355408,646.966797 859.884888,633.749878 856.848877,620.941345   C853.613953,607.293640 849.687988,593.593323 844.101074,580.771240   C836.142883,562.507324 827.339355,544.465576 817.215332,527.322021   C796.311768,491.924683 768.927979,461.810791 737.815674,434.334442   C738.518616,433.079041 738.997314,431.609802 739.959229,430.601440   C749.168213,420.947296 759.086243,411.888855 767.554016,401.630310   C776.442627,390.861908 784.766602,379.444733 791.926758,367.467773   C810.546692,336.321533 818.626526,301.831116 820.788635,266.000824   C821.715088,250.646683 820.509888,235.147278 819.956848,219.725220   C819.410706,204.496078 816.232910,189.732117 812.177490,175.030334   C804.953979,148.843658 792.425293,125.586670 773.448547,106.399658   C763.886292,96.731445 752.687317,88.162659 740.955383,81.260353   C709.795654,62.927917 675.196472,54.515713 639.490723,54.294617   C515.998718,53.529919 392.498993,53.990047 269.002228,54.041595   C264.743652,54.043373 260.463867,54.488323 256.230530,55.018528   C235.535049,57.610542 219.277771,68.430084 206.626053,84.161964   C190.955429,103.647697 184.403076,126.952209 184.160339,151.569458   C183.629562,205.396149 183.975250,259.231476 183.817947,313.492157   C183.811218,327.489227 183.735138,341.487061 183.892685,355.482269   C183.910706,357.083221 185.235718,358.669434 184.965286,359.489197   C184.707092,359.818542 184.448898,360.147888 184.032455,360.959290  z"/>
<path fill="#33B5BD" opacity="1.000000" stroke="none" d=" M737.907349,434.955261   C768.927979,461.810791 796.311768,491.924683 817.215332,527.322021   C827.339355,544.465576 836.142883,562.507324 844.101074,580.771240   C849.687988,593.593323 853.613953,607.293640 856.848877,620.941345   C859.884888,633.749878 861.355408,646.966797 862.915405,660.075378   C864.031311,669.452759 864.794922,678.959656 864.621033,688.388611   C863.525696,747.754700 845.857422,801.554504 809.398499,848.732361   C777.662598,889.798645 737.043030,918.541504 687.738892,934.815674   C660.406433,943.837524 632.323120,948.001221 603.481567,947.932495   C513.316833,947.717529 423.151276,947.821594 332.369659,947.573853   C330.811951,947.451538 329.870605,947.557373 328.929260,947.663208   C326.268463,947.690308 323.607635,947.717407 320.237976,947.466553   C316.000061,947.370850 312.470947,947.553101 308.941864,947.735352   C308.222992,947.737793 307.504089,947.740234 306.268494,947.465332   C304.513275,947.318604 303.274719,947.449158 302.036194,947.579712   C279.569000,947.727905 257.522491,945.154114 236.466660,936.843323   C208.950439,925.982605 193.740662,905.288635 187.085968,876.817261   C184.042801,863.797424 184.065643,850.930969 184.075272,837.895752   C184.128693,765.586792 184.254898,693.277832 184.329071,620.968872   C184.338638,611.641418 184.191101,602.313904 184.369827,592.297241   C184.481750,589.715149 184.340179,587.822266 184.198593,585.929382   C183.487778,579.213501 182.451187,572.511475 182.163651,565.777527   C181.908630,559.804504 182.528656,553.797058 182.683517,547.802795   C182.843277,541.619934 182.865860,535.433594 183.021820,529.250549   C183.482758,510.976593 183.979584,492.703552 184.463303,474.430145   C184.538193,471.601105 184.618042,468.772217 185.061493,465.301727   C185.948441,462.643280 186.882202,460.635406 186.926682,458.608002   C187.372101,438.308868 187.422806,417.998169 188.100555,397.707977   C188.538757,384.588837 189.963470,371.505615 190.698502,358.392395   C191.158875,350.179596 192.579620,341.666412 191.053497,333.774567   C188.369217,319.893585 195.109100,311.708832 209.274887,313.252747   C215.624664,313.944824 222.120010,313.240112 228.547775,313.309875   C230.844543,313.334747 233.227478,313.455841 235.415497,314.079132   C244.931366,316.789948 254.261459,317.484650 263.601898,313.192322   C265.754364,312.203186 268.472412,312.119324 270.921936,312.156769   C283.355713,312.346588 295.786072,312.934662 308.218964,312.975159   C340.000427,313.078735 371.814331,312.245148 403.355530,317.480804   C405.083344,317.767639 406.965485,317.329254 408.747437,317.048309   C414.970062,316.067261 421.192596,315.074493 427.387665,313.936432   C429.282013,313.588409 431.087891,312.758911 433.325012,312.099426   C444.328278,313.552155 455.045441,314.540680 465.529968,316.673126   C483.507599,320.329620 501.463104,324.234100 519.195618,328.914429   C534.420105,332.932739 549.320435,338.179474 564.363159,342.885956   C569.878113,344.611450 575.390381,346.345520 580.993774,348.431427   C582.490356,349.493652 583.858337,350.294769 585.310486,350.890564   C592.283142,353.751129 599.493164,356.124908 606.220215,359.472687   C619.320862,365.992462 632.246765,372.880310 645.075806,379.924042   C659.506042,387.846985 673.739685,396.127533 688.077515,404.219482   C697.493713,409.533783 707.028992,414.643799 716.342712,420.130768   C721.259399,423.027374 725.823181,426.524933 730.532349,429.771393   C733.006165,431.476868 735.449951,433.225922 737.907349,434.955261  M375.318115,519.356506   C375.459045,520.921387 375.600006,522.486267 375.814606,524.979248   C375.833069,604.803101 375.849091,684.627014 375.874359,764.450867   C375.876526,771.322449 375.905090,771.360535 382.801880,771.361938   C426.130219,771.370667 469.458649,771.407654 512.786865,771.337769   C534.204712,771.303223 555.714783,771.945679 576.787598,767.177124   C589.911133,764.207336 603.217407,761.436829 615.806702,756.838562   C643.299072,746.796692 660.534241,727.503723 664.731628,697.808472   C666.886353,682.563965 666.080994,667.354980 663.470459,652.264954   C658.408630,623.005066 644.570984,598.052734 624.949585,576.183411   C602.168457,550.792358 574.489197,531.860291 544.292480,516.461121   C501.516907,494.647247 456.130096,480.610046 409.050873,471.822571   C398.346344,469.824585 387.519958,468.479431 375.730988,466.678131   C375.730988,480.386932 375.730988,493.166840 375.426544,506.185730   C375.542297,506.806396 375.658081,507.427063 375.865234,508.952209   C375.835602,512.286072 375.805969,515.619934 375.318115,519.356506  z"/>
<path fill="#F5F5F5" opacity="1.000000" stroke="none" d=" M737.861511,434.644836   C735.449951,433.225922 733.006165,431.476868 730.532349,429.771393   C725.823181,426.524933 721.259399,423.027374 716.342712,420.130768   C707.028992,414.643799 697.493713,409.533783 688.077515,404.219482   C673.739685,396.127533 659.506042,387.846985 645.075806,379.924042   C632.246765,372.880310 619.320862,365.992462 606.220215,359.472687   C599.493164,356.124908 592.283142,353.751129 585.310486,350.890564   C583.858337,350.294769 582.490356,349.493652 581.229370,348.167969   C599.253479,336.129456 614.159912,321.887543 622.887146,302.199982   C629.218018,287.918091 631.006531,272.828583 627.687561,257.527405   C624.214722,241.516617 611.993469,234.337448 597.624268,230.071564   C579.073181,224.564194 559.822083,223.376480 540.713074,223.184937   C487.563232,222.652222 434.404572,223.000031 381.249420,223.000031   C379.634979,223.000031 378.020538,223.000031 375.854950,223.000031   C375.854950,251.291031 375.854950,279.075653 375.514648,306.847534   C374.495453,306.788025 373.816498,306.741272 372.745636,306.521362   C370.862885,306.232635 369.372070,306.016510 367.881226,306.016052   C308.731506,305.998169 249.581802,305.991943 190.432144,306.043213   C188.904221,306.044525 187.376846,306.703308 185.872040,307.326477   C185.960403,307.766571 186.025955,307.935638 186.021484,308.568085   C185.288620,310.375397 184.625778,311.719330 183.962921,313.063263   C183.975250,259.231476 183.629562,205.396149 184.160339,151.569458   C184.403076,126.952209 190.955429,103.647697 206.626053,84.161964   C219.277771,68.430084 235.535049,57.610542 256.230530,55.018528   C260.463867,54.488323 264.743652,54.043373 269.002228,54.041595   C392.498993,53.990047 515.998718,53.529919 639.490723,54.294617   C675.196472,54.515713 709.795654,62.927917 740.955383,81.260353   C752.687317,88.162659 763.886292,96.731445 773.448547,106.399658   C792.425293,125.586670 804.953979,148.843658 812.177490,175.030334   C816.232910,189.732117 819.410706,204.496078 819.956848,219.725220   C820.509888,235.147278 821.715088,250.646683 820.788635,266.000824   C818.626526,301.831116 810.546692,336.321533 791.926758,367.467773   C784.766602,379.444733 776.442627,390.861908 767.554016,401.630310   C759.086243,411.888855 749.168213,420.947296 739.959229,430.601440   C738.997314,431.609802 738.518616,433.079041 737.861511,434.644836  z"/>
<path fill="#3CB2BB" opacity="1.000000" stroke="none" d=" M373.137573,306.694519   C373.816498,306.741272 374.495453,306.788025 375.973633,306.901062   C380.386719,307.295685 384.001007,307.619049 387.614288,307.953217   C402.721130,309.350342 417.827667,310.750702 432.934296,312.149902   C431.087891,312.758911 429.282013,313.588409 427.387665,313.936432   C421.192596,315.074493 414.970062,316.067261 408.747437,317.048309   C406.965485,317.329254 405.083344,317.767639 403.355530,317.480804   C371.814331,312.245148 340.000427,313.078735 308.218964,312.975159   C295.786072,312.934662 283.355713,312.346588 270.921936,312.156769   C268.472412,312.119324 265.754364,312.203186 263.601898,313.192322   C254.261459,317.484650 244.931366,316.789948 235.415497,314.079132   C233.227478,313.455841 230.844543,313.334747 228.547775,313.309875   C222.120010,313.240112 215.624664,313.944824 209.274887,313.252747   C195.109100,311.708832 188.369217,319.893585 191.053497,333.774567   C192.579620,341.666412 191.158875,350.179596 190.698502,358.392395   C189.963470,371.505615 188.538757,384.588837 188.100555,397.707977   C187.422806,417.998169 187.372101,438.308868 186.926682,458.608002   C186.882202,460.635406 185.948441,462.643280 185.161224,464.845764   C184.793213,458.051239 184.618073,451.071320 184.602493,444.091095   C184.543808,417.786804 184.537079,391.482391 184.709534,364.555298   C185.200912,363.322723 185.493652,362.712860 185.870300,361.646667   C185.954361,360.881104 185.954544,360.571777 185.954712,360.262482   C185.235718,358.669434 183.910706,357.083221 183.892685,355.482269   C183.735138,341.487061 183.811218,327.489227 183.890442,313.277710   C184.625778,311.719330 185.288620,310.375397 186.483109,308.542725   C246.217987,308.033295 305.421234,308.023468 364.624451,307.957916   C367.416840,307.954834 370.208740,307.456573 373.049683,307.069336   C373.098511,306.949799 373.137573,306.694519 373.137573,306.694519  z"/>
<path fill="#339DAA" opacity="1.000000" stroke="none" d=" M309.400452,947.808411   C312.470947,947.553101 316.000061,947.370850 319.795776,947.429321   C316.661285,947.740479 313.260132,947.810974 309.400452,947.808411  z"/>
<path fill="#3495A3" opacity="1.000000" stroke="none" d=" M184.125885,586.362976   C184.340179,587.822266 184.481750,589.715149 184.391464,591.832642   C184.124130,590.303650 184.088669,588.550110 184.125885,586.362976  z"/>
<path fill="#339DAA" opacity="1.000000" stroke="none" d=" M302.363220,947.664673   C303.274719,947.449158 304.513275,947.318604 305.911377,947.419922   C304.944092,947.684387 303.817169,947.716980 302.363220,947.664673  z"/>
<path fill="#339DAA" opacity="1.000000" stroke="none" d=" M329.316620,947.736694   C329.870605,947.557373 330.811951,947.451538 331.906189,947.536133   C331.274017,947.754395 330.489014,947.782288 329.316620,947.736694  z"/>
<path fill="#398194" opacity="1.000000" stroke="none" d=" M185.786392,362.102966   C185.493652,362.712860 185.200912,363.322723 184.725433,364.107605   C184.430511,363.768921 184.318344,363.255188 184.383911,362.352478   C184.561630,361.963470 184.980103,361.867004 185.174194,361.951599   C185.368271,362.036163 185.786377,362.102966 185.786392,362.102966  z"/>
<path fill="#DCE5E8" opacity="1.000000" stroke="none" d=" M185.870285,361.646667   C185.786377,362.102966 185.368271,362.036163 184.986008,361.598938   C184.466049,360.933533 184.328369,360.705383 184.190704,360.477234   C184.448898,360.147888 184.707092,359.818542 185.459991,359.875854   C185.954544,360.571777 185.954361,360.881104 185.870285,361.646667  z"/>
<path fill="#F5F5F5" opacity="1.000000" stroke="none" d=" M184.111572,360.718262   C184.328369,360.705383 184.466049,360.933533 184.791931,361.514343   C184.980103,361.867004 184.561630,361.963470 184.347595,361.959625   C184.099854,361.623627 184.066147,361.291443 184.111572,360.718262  z"/>
<path fill="#364F6B" opacity="1.000000" stroke="none" d=" M375.730988,505.946747   C375.730988,493.166840 375.730988,480.386932 375.730988,466.678131   C387.519958,468.479431 398.346344,469.824585 409.050873,471.822571   C456.130096,480.610046 501.516907,494.647247 544.292480,516.461121   C574.489197,531.860291 602.168457,550.792358 624.949585,576.183411   C644.570984,598.052734 658.408630,623.005066 663.470459,652.264954   C666.080994,667.354980 666.886353,682.563965 664.731628,697.808472   C660.534241,727.503723 643.299072,746.796692 615.806702,756.838562   C603.217407,761.436829 589.911133,764.207336 576.787598,767.177124   C555.714783,771.945679 534.204712,771.303223 512.786865,771.337769   C469.458649,771.407654 426.130219,771.370667 382.801880,771.361938   C375.905090,771.360535 375.876526,771.322449 375.874359,764.450867   C375.849091,684.627014 375.833069,604.803101 375.846619,524.094116   C375.844543,521.790649 375.810455,520.372192 375.776367,518.953796   C375.805969,515.619934 375.835602,512.286072 375.858215,508.149811   C375.811157,506.880524 375.771088,506.413635 375.730988,505.946747  z"/>
<path fill="#364F6B" opacity="1.000000" stroke="none" d=" M433.325012,312.099426   C417.827667,310.750702 402.721130,309.350342 387.614288,307.953217   C384.001007,307.619049 380.386719,307.295685 376.313904,306.913818   C375.854950,279.075653 375.854950,251.291031 375.854950,223.000031   C378.020538,223.000031 379.634979,223.000031 381.249420,223.000031   C434.404572,223.000031 487.563232,222.652222 540.713074,223.184937   C559.822083,223.376480 579.073181,224.564194 597.624268,230.071564   C611.993469,234.337448 624.214722,241.516617 627.687561,257.527405   C631.006531,272.828583 629.218018,287.918091 622.887146,302.199982   C614.159912,321.887543 599.253479,336.129456 581.139465,347.812256   C575.390381,346.345520 569.878113,344.611450 564.363159,342.885956   C549.320435,338.179474 534.420105,332.932739 519.195618,328.914429   C501.463104,324.234100 483.507599,320.329620 465.529968,316.673126   C455.045441,314.540680 444.328278,313.552155 433.325012,312.099426  z"/>
<path fill="#339FAB" opacity="1.000000" stroke="none" d=" M375.547241,519.155151   C375.810455,520.372192 375.844543,521.790649 375.809814,523.630127   C375.600006,522.486267 375.459045,520.921387 375.547241,519.155151  z"/>
<path fill="#33A0AC" opacity="1.000000" stroke="none" d=" M375.578766,506.066223   C375.771088,506.413635 375.811157,506.880524 375.812531,507.697571   C375.658081,507.427063 375.542297,506.806396 375.578766,506.066223  z"/>
<path fill="#B9C2CA" opacity="1.000000" stroke="none" d=" M185.849213,307.055450   C187.376846,306.703308 188.904221,306.044525 190.432144,306.043213   C249.581802,305.991943 308.731506,305.998169 367.881226,306.016052   C369.372070,306.016510 370.862885,306.232635 372.745636,306.521362   C373.137573,306.694519 373.098511,306.949799 372.584290,307.010376   C309.996429,307.065796 247.922821,307.060608 185.849213,307.055450  z"/>
<path fill="#3A899A" opacity="1.000000" stroke="none" d=" M185.872040,307.326477   C247.922821,307.060608 309.996429,307.065796 372.535461,307.129944   C370.208740,307.456573 367.416840,307.954834 364.624451,307.957916   C305.421234,308.023468 246.217987,308.033295 186.553131,308.079346   C186.025955,307.935638 185.960403,307.766571 185.872040,307.326477  z"/>
</svg>